# xmcd CD database file
#
# Track frame offsets:
#	150
#	20354
#	35509
#	52821
#	74273
#	92525
#	108683
#	129747
#	146111
#	157833
#	173948
#
# Disc length: 2579 seconds
#
# Revision: 0
# Processed by: cddbd v1.5.1PL0 Copyright (c) Steve Scherf et al.
# Submitted via: CDex 1.50Beta7
#
DISCID=910a110b
DTITLE=New Model Army - The Love Hopeless Causes
DYEAR=1900
DGENRE=New Age
TTITLE0=Here Comes The War
TTITLE1=Fate
TTITLE2=Living In The Rose
TTITLE3=White Light
TTITLE4=Believe It
TTITLE5=Understand U
TTITLE6=My People
TTITLE7=These Words
TTITLE8=Afternoon Song
TTITLE9=Bad Old World
TTITLE10=Higher Wall
EXTD=
EXTT0=
EXTT1=
EXTT2=
EXTT3=
EXTT4=
EXTT5=
EXTT6=
EXTT7=
EXTT8=
EXTT9=
EXTT10=
PLAYORDER=
